<?xml version="1.0" encoding="UTF-8" standalone="no"?>
<!-- Created with Inkscape (http://www.inkscape.org/) -->

<svg
   xmlns:dc="http://purl.org/dc/elements/1.1/"
   xmlns:cc="http://creativecommons.org/ns#"
   xmlns:rdf="http://www.w3.org/1999/02/22-rdf-syntax-ns#"
   xmlns:svg="http://www.w3.org/2000/svg"
   xmlns="http://www.w3.org/2000/svg"
   xmlns:sodipodi="http://sodipodi.sourceforge.net/DTD/sodipodi-0.dtd"
   xmlns:inkscape="http://www.inkscape.org/namespaces/inkscape"
   width="210mm"
   height="297mm"
   viewBox="0 0 744.09448819 1052.3622047"
   id="svg3352"
   version="1.1"
   inkscape:version="0.91 r13725"
   sodipodi:docname="snakebrain.svg">
  <defs
     id="defs3354" />
  <sodipodi:namedview
     id="base"
     pagecolor="#ffffff"
     bordercolor="#666666"
     borderopacity="1.0"
     inkscape:pageopacity="0.0"
     inkscape:pageshadow="2"
     inkscape:zoom="0.35"
     inkscape:cx="13.571429"
     inkscape:cy="622.85714"
     inkscape:document-units="px"
     inkscape:current-layer="layer1"
     showgrid="false"
     inkscape:window-width="1440"
     inkscape:window-height="855"
     inkscape:window-x="0"
     inkscape:window-y="1"
     inkscape:window-maximized="1" />
  <metadata
     id="metadata3357">
    <rdf:RDF>
      <cc:Work
         rdf:about="">
        <dc:format>image/svg+xml</dc:format>
        <dc:type
           rdf:resource="http://purl.org/dc/dcmitype/StillImage" />
        <dc:title></dc:title>
      </cc:Work>
    </rdf:RDF>
  </metadata>
  <g
     inkscape:label="Layer 1"
     inkscape:groupmode="layer"
     id="layer1">
    <path
       inkscape:connector-curvature="0"
       style="opacity:1;fill:#ff7f2a;fill-opacity:1;stroke:#ff7f2a;stroke-opacity:1"
       id="path4210"
       d="m 654.6691,720.66222 -6.9592,-5.6983 7.9403,-6.9675 c 8.8557,-7.7708 8.2815,-12.142 -0.76288,-5.8068 -3.1905,2.2347 -8.3329,4.0631 -11.428,4.0631 -3.0951,0 -6.332,1.1413 -7.1942,2.5363 -0.8622,1.395 -5.4274,2.5363 -10.145,2.5363 -4.7176,0 -9.283,-1.1413 -10.145,-2.5363 -0.862,-1.395 -7.13941,-2.5363 -13.95001,-2.5363 -6.8106,0 -13.087,1.1413 -13.95,2.5363 -0.863,1.395 -9.7748,2.5028 -19.806,2.4619 -16.604,-0.068 -18.977,-0.7462 -26.481,-7.5731 -4.5336,-4.1243 -8.2429,-8.4792 -8.2429,-9.6777 0,-4.2543 9.372,-10.574 15.681,-10.574 3.5226,0 9.4834,-2.8534 13.246,-6.3408 4.1156,-3.8142 9.8532,-6.3407 14.399,-6.3407 4.3783,0 8.1719,-1.6005 9.0176,-3.8044 1.0004,-2.6069 5.1665,-3.831 13.236,-3.8888 13.45201,-0.096 26.23401,-8.03 21.14201,-13.122 -2.1213,-2.1213 -3.2779,-1.768 -4.4818,1.3694 -1.2019,3.1322 -4.7699,4.2285 -13.76101,4.2285 -8.4502,0 -12.582,1.156 -13.599,3.8044 -0.91967,2.3966 -4.8036,3.8044 -10.496,3.8044 -5.6924,0 -9.5764,1.4078 -10.496,3.8044 -0.80296,2.0924 -3.5531,3.8044 -6.1114,3.8044 -2.5583,0 -5.3569,1.1413 -6.219,2.5363 -0.8621,1.395 -4.706,2.5363 -8.5419,2.5363 -3.8359,0 -9.1898,1.6757 -11.898,3.7238 -2.7082,2.0481 -6.9564,3.7601 -9.4413,3.8045 -2.4849,0.044 -5.175,1.7926 -5.9779,3.8851 -2.4967,6.5063 -24.221,5.0545 -30.91,-2.0657 -3.0331,-3.2286 -5.5146,-7.0243 -5.5146,-8.435 0,-4.3648 11.463,-13.594 16.884,-13.594 2.8293,0 10.174,-2.8385 16.322,-6.3079 6.148,-3.4694 12.89,-6.9766 14.982,-7.7939 2.092,-0.8173 5.7862,-2.5441 8.2085,-3.8372 2.4223,-1.2931 14.216,-2.3511 26.208,-2.3511 16.313,0 21.539,-0.7984 20.753,-3.1703 -1.6929,-5.1067 -48.39,-5.7475 -52.561,-0.7213 -1.7764,2.1404 -5.2329,3.8916 -7.6812,3.8916 -2.4483,0 -5.8723,1.712 -7.6088,3.8044 -1.7365,2.0924 -6.2426,3.8044 -10.014,3.8044 -4.0339,0 -9.3082,2.6101 -12.813,6.3407 -3.2762,3.4874 -7.9007,6.3407 -10.277,6.3407 -2.3763,0 -5.7407,1.712 -7.4773,3.8044 -2.1373,2.5753 -7.8734,3.8044 -17.754,3.8044 -9.8806,0 -15.617,-1.2292 -17.754,-3.8044 -1.7366,-2.0924 -6.3195,-3.8044 -10.184,-3.8044 -3.9064,0 -7.6752,1.6894 -8.4868,3.8044 -0.80293,2.0924 -3.5501,3.8044 -6.1048,3.8044 -2.5547,0 -5.955,1.3101 -7.5562,2.9113 -3.8406,3.8406 -66.059,3.6994 -69.917,-0.1587 -1.5139,-1.5139 -4.5831,-2.7526 -6.8204,-2.7526 -10.192,0 -25.373,-24.452 -18.007,-29.005 4.0639,-2.5116 12.944,-21.714 12.944,-27.99 0,-3.3621 1.1413,-6.8183 2.5363,-7.6804 1.395,-0.8621 2.5363,-11.062 2.5363,-22.666 0,-15.66 0.98065,-21.912 3.8044,-24.255 2.0924,-1.7366 3.8044,-5.169 3.8044,-7.62769 0,-2.4587 2.8533,-6.3399 6.3407,-8.6249 7.9034,-5.1785 8.1466,-9.1102 0.56366,-9.1102 -6.2114,0 -14.513,7.9103 -14.513,13.829 0,1.9942 -1.1413,4.33109 -2.5363,5.19319 -1.395,0.8621 -2.5363,4.5489 -2.5363,8.1929 0,3.644 -1.8889,8.7125 -4.1975,11.264 -3.9118,4.3224 -3.889,4.9791 0.33428,9.6458 4.22328,4.6667 4.2498,5.4379 0.3931,11.324 -2.2763,3.4741 -4.1387,10.782 -4.1387,16.24 0,5.727 -1.6089,11.259 -3.8044,13.081 -2.0924,1.7366 -3.8044,5.1234 -3.8044,7.5263 0,5.5273 -8.9417,13.807 -12.522,11.595 -4.1503,-2.565 -3.3,-23.071 1.1083,-26.73 2.4868,-2.0639 3.8044,-7.7131 3.8044,-16.312 0,-7.6396 1.5611,-15.218 3.7238,-18.077 2.367,-3.1294 3.7531,-10.962 3.8044,-21.496 l 0.0806,-16.57199 13.95,-13.776 c 7.6722,-7.5769 13.95,-15.69 13.95,-18.03 0,-2.34 1.9028,-4.984 4.2285,-5.8764 2.9321,-1.1251 3.4184,-2.4327 1.5863,-4.2649 -1.8321,-1.8322 -6.221,1.1094 -14.315,9.5942 -6.4199,6.73 -11.699,13.702 -11.731,15.492 -0.032,1.79 -3.4828,6.6029 -7.6676,10.694 -6.7573,6.6055 -7.6088,9.1157 -7.6088,22.42999 0,10.233 -1.2078,15.995 -3.8044,18.15 -2.0924,1.7366 -3.8044,6.4416 -3.8044,10.456 0,8.7042 -5.8503,9.6545 -14.584,2.3689 -4.9164,-4.1014 -5.7066,-7.2076 -5.7066,-22.432 0,-12.613 1.0888,-18.57499 3.8044,-20.82799 2.0924,-1.7366 3.8044,-7.0481 3.8044,-11.803 0,-5.3457 1.4522,-9.2033 3.8044,-10.106 2.646,-1.0154 3.8044,-5.144 3.8044,-13.559 0,-7.6212 1.3978,-13.26 3.7765,-15.234 2.0771,-1.7238 3.231,-4.0169 2.5642,-5.0957 -0.6668,-1.0788 0.48714,-3.3719 2.5642,-5.0957 2.07706,-1.7238 3.7765,-5.0395 3.7765,-7.3681 0,-2.3286 5.0865,-9.2259 11.303,-15.327 6.2165,-6.1011 10.647,-12.155 9.8454,-13.452 -2.0004,-3.2367 22.028,-27.236 27.269,-27.236 2.3228,0 5.734,-1.8204 7.5805,-4.0452 2.7184,-3.2754 6.3469,-3.725 19.068,-2.3628 15.118,1.619 16.011,1.3887 23.672,-6.0999 6.7922,-6.6396 9.9036,-7.7942 21.189,-7.863 7.5868,-0.0463 15.328,-1.6687 18.151,-3.8044 2.7078,-2.0481 7.9522,-3.7238 11.654,-3.7238 7.0922,0 15.096,-6.7961 15.17,-12.881 0.0568,-4.6712 10.98,-15.018 15.855,-15.018 2.0738,0 5.2311,-1.76 7.0164,-3.9112 2.3231,-2.7991 6.9185,-3.7006 16.162,-3.1703 12.822,0.73544 20.822,-3.5707 9.5908,-5.1625 -7.6317,-1.0817 -9.7758,-7.0496 -4.591,-12.779 2.2616,-2.499 4.112,-5.3098 4.112,-6.2462 0,-3.2589 -9.5453,-1.6768 -12.681,2.1019 -1.7366,2.0924 -5.0764,3.8044 -7.4218,3.8044 -4.7541,0 -20.477,15.087 -20.477,19.648 0,1.6067 -5.1394,8.3619 -11.421,15.012 -9.64,10.205 -13.08,12.201 -22.058,12.803 -5.8507,0.39178 -11.782,1.8568 -13.181,3.2557 -1.399,1.3989 -6.3456,2.5434 -10.993,2.5434 -5.1708,0 -9.0158,1.4762 -9.9092,3.8044 -0.80296,2.0924 -3.3665,3.8044 -5.6968,3.8044 -2.3303,0 -6.8264,1.8138 -9.9914,4.0306 -8.721,6.1084 -13.585,2.8678 -12.648,-8.4276 0.59422,-7.1684 2.0375,-9.7361 5.8609,-10.427 7.0705,-1.2782 13.522,-7.5204 14.442,-13.974 0.59635,-4.1832 2.8288,-5.632 9.6527,-6.2646 6.3786,-0.59125 11.58,-3.625 18.482,-10.779 5.2828,-5.476 11.21,-9.9563 13.172,-9.9563 1.962,0 9.5035,-6.2773 16.76,-13.95 7.2565,-7.6727 15.111,-13.95 17.455,-13.95 2.344,0 6.9431,-2.8533 10.219,-6.3407 3.5048,-3.7306 8.779,-6.3407 12.813,-6.3407 3.7709,0 8.277,-1.712 10.014,-3.8044 8.2638,-9.9573 22.826,1.68 22.826,18.241 0,6.0321 1.5659,11.605 3.7765,13.439 2.0771,1.7238 3.0988,4.2307 2.2706,5.5708 -2.099,3.3964 9.0879,14.743 14.536,14.743 2.4644,0 5.1861,1.1413 6.0482,2.5363 0.8621,1.395 3.8186,2.5363 6.57,2.5363 2.7514,0 5.6594,1.712 6.4624,3.8044 0.87552,2.2816 4.6986,3.8044 9.5508,3.8044 6.0974,0 10.532,2.4996 17.997,10.145 5.4485,5.5798 11.30601,10.145 13.01601,10.145 1.71,0 7.1377,3.7995 12.062,8.4433 8.7937,8.2935 8.9656,8.8445 9.6916,31.069 0.94824,29.026 5.5634,29.778 6.56,1.0678 0.89134,-25.678 -0.56354,-32.972 -6.5765,-32.972 -2.4549,0 -11.755,-7.3568 -20.666,-16.348 -13.84801,-13.972 -15.72801,-16.921 -12.93201,-20.29 3.6444,-4.3913 22.92201,-5.4824 26.88201,-1.5217 3.831,3.831 24.498,4.432 25.797,0.7502 0.63869,-1.81 -0.93086,-3.1703 -3.658,-3.1703 -2.6272,0 -6.2033,-1.4266 -7.947,-3.1703 -4.6338,-4.6338 -48.95401,-4.3094 -54.62801,0.39977 -3.2583,2.7041 -5.0139,2.8579 -7.2377,0.63407 -1.6148,-1.6148 -5.992,-2.936 -9.7271,-2.936 -3.7351,0 -8.2118,-1.712 -9.9484,-3.8044 -1.7366,-2.0924 -5.1013,-3.8044 -7.4773,-3.8044 -2.376,0 -6.8289,-2.6707 -9.8955,-5.935 -8.0576,-8.5769 -7.253,-30.782 1.4349,-39.599 8.4634,-8.589 14.395,-4.6503 15.48,10.279 1.0013,13.773 6.3236,20.036 17.026,20.036 4.4953,0 9.5941,1.712 11.331,3.8044 2.5457,3.0674 10.413,3.8044 40.60701,3.8044 l 37.45,0 11.697,11.531 c 6.4332,6.3422 11.697,13.761 11.697,16.486 0,3.4235 1.7634,4.9791 5.7066,5.0342 9.9907,0.13954 15.01,10.623 15.089,31.517 0.0686,17.981 -5.9895,39.419 -11.139,39.419 -1.1265,0 -2.0482,3.8549 -2.0482,8.5664 0,4.7115 -1.712,9.9872 -3.8044,11.724 -5.4266,4.5037 -5.3258,36.16 0.12952,40.688 2.3947,1.9874 3.6351,6.3265 3.1703,11.09 -0.64446,6.6041 -1.9506,7.9569 -8.3724,8.6711 -4.1848,0.46546 -9.6384,2.6688 -12.119,4.8963 -4.1925,3.7649 -5.2708,3.3035 -15.314,-6.5529 -5.942,-5.8316 -12.047,-10.603 -13.567,-10.603 -1.52,0 -4.1846,-1.712 -5.9212,-3.8044 -1.7366,-2.0924 -5.0539,-3.8044 -7.3719,-3.8044 -2.318,0 -10.353,-6.2155 -17.855,-13.812 -7.502,-7.5965 -14.31101,-13.739 -15.13101,-13.649 -5.3228,0.58238 -7.831,-1.0305 -7.831,-5.0357 0,-2.5289 -3.424,-7.8784 -7.6088,-11.888 -4.1848,-4.0096 -7.6088,-9.2915 -7.6088,-11.738 0,-2.4465 -1.1413,-5.1537 -2.5363,-6.0159 -1.395,-0.8622 -2.5363,-4.7252 -2.5363,-8.5845 0,-6.884 -8.9295,-18.046 -14.436,-18.046 -1.483,0 -4.1171,-1.712 -5.8537,-3.8044 -1.7366,-2.0924 -5.2661,-3.8044 -7.8435,-3.8044 -2.5774,0 -7.1982,-3.3979 -10.269,-7.5509 l -5.5826,-7.5509 -8.6665,8.9236 c -7.0656,7.2752 -8.0993,9.6071 -5.596,12.623 2.4201,2.9161 2.3332,4.593 -0.41037,7.9166 -2.7137,3.2875 -2.7822,4.452 -0.31054,5.2839 4.3887,1.4771 3.9792,7.4001 -0.63407,9.1704 -2.5991,0.99737 -3.8044,5.0633 -3.8044,12.834 0,10.515 -0.67308,11.693 -8.9179,15.606 -10.337,4.9052 -12.622,7.616 -8.5434,10.137 1.6014,0.9897 3.9594,-0.0727 5.24,-2.361 1.4566,-2.6027 5.6049,-4.1605 11.079,-4.1605 l 8.7509,0 0,-12.371 c 0,-7.9021 1.3743,-13.511 3.8044,-15.528 2.0924,-1.7366 3.8044,-6.2427 3.8044,-10.014 0,-3.9334 2.5621,-9.2632 6.0101,-12.502 l 6.0102,-5.6462 10.17,5.301 c 13.986,7.2897 17.483,12 19.546,26.319 1.6178,11.23 1.1488,12.991 -5.2368,19.656 -3.8576,4.0265 -8.8287,7.3208 -11.047,7.3208 -7.1886,0 -18.191,15.146 -17.34,23.87 0.75697,7.7591 0.91767,7.841 16.87,8.5954 12.33,0.58314 15.851,-0.0114 15.021,-2.5363 -0.61048,-1.8562 -6.5424,-3.8524 -13.569,-4.5661 -10.371,-1.0534 -12.485,-2.1269 -12.485,-6.3407 0,-3.2787 1.953,-5.3506 5.5224,-5.8589 3.0373,-0.43249 6.8864,-2.4298 8.5534,-4.4385 1.667,-2.0087 4.4635,-3.6522 6.2143,-3.6522 1.7508,0 4.6041,-1.712 6.3407,-3.8044 5.3236,-6.4145 10.253,-4.3666 24.422,10.145 7.4906,7.6722 15.047,13.997 16.791,14.055 1.74401,0.058 7.54021,3.9645 12.87901,8.681 l 9.707,8.5754 -5.2685,5.2685 c -2.8977,2.8977 -7.5511,5.2685 -10.341,5.2685 -2.8181,0 -5.0725,1.6909 -5.0725,3.8044 0,2.0924 2.1429,3.8044 4.762,3.8044 2.6191,0 6.1828,-1.712 7.9194,-3.8044 3.583,-4.3172 24.141,-5.2962 26.631,-1.2681 0.86213,1.395 3.3174,2.5363 5.4563,2.5363 2.1389,0 6.6887,2.2024 10.111,4.8944 4.4009,3.4617 8.6355,4.5027 14.467,3.5564 5.7267,-0.92931 9.2723,-0.10021 11.608,2.7145 1.8498,2.2289 5.3733,4.0525 7.8301,4.0525 2.4568,0 8.5913,4.5653 13.632,10.145 5.0407,5.57975 10.595,10.18305 12.342,10.22905 6.4538,0.1714 14.225,9.4351 15.035,17.923 0.63983,6.703 2.094,8.804 6.5298,9.434 4.6477,0.66 5.7066,-0.3989 5.7066,-5.7066 0,-7.0856 0.0135,-7.0904 19.972,-7.009 12.484,0.051 14.512,0.9198 24.095,10.325 5.7549,5.648 11.319,10.311 12.366,10.363 1.04699,0.052 3.04349,0.094 4.43849,0.094 1.395,0 2.5363,2.0837 2.5363,4.6304 0,2.5467 2.8533,7.311 6.3407,10.587 4.204,3.9495 6.3407,8.6945 6.3407,14.081 0,4.4684 1.712,9.5451 3.8044,11.282 6.2252,5.1665 5.0028,24.818 -1.9022,30.578 -3.1386,2.6184 -7.5818,4.7986 -9.8737,4.845 -2.2919,0.046 -4.7955,1.7218 -5.5635,3.7232 -1.7611,4.5894 -15.89599,4.4315 -19.75699,-0.2207 -1.5603,-1.88 -4.84,-3.4182 -7.2883,-3.4182 -2.4483,0 -5.8723,-1.712 -7.6088,-3.8044 -1.7365,-2.0924 -6.3954,-3.8044 -10.353,-3.8044 -4.32,0 -9.5172,-2.4524 -13.005,-6.1365 -5.2517,-5.5476 -11.946,-7.6149 -22.103,-6.8256 -5.1876,0.4031 7.0408,12.962 12.621,12.962 2.3759,0 5.7407,1.712 7.4773,3.8044 1.7366,2.0924 6.3742,3.8044 10.306,3.8044 3.9318,0 7.854,1.1413 8.7161,2.5363 0.8621,1.395 3.7154,2.5363 6.3407,2.5363 6.9629,0 9.1142,5.308 3.743,9.2355 -2.5525,1.8664 -3.8657,4.1686 -2.9182,5.116 0.9475,0.9474 0.12595,3.5272 -1.8255,5.7328 -1.95145,2.2056 -3.9629,6.2929 -4.4699,9.0828 -0.52442,2.8858 -3.2913,5.4115 -6.4183,5.8589 -3.0231,0.4325 -6.8605,2.4298 -8.5275,4.4385 -1.667,2.0087 -6.8859,3.6522 -11.597,3.6522 -8.1885,0 -8.5664,-0.4142 -8.5664,-9.3903 0,-7.1275 1.9545,-11.407 8.1111,-17.759 5.9473,-6.1361 7.3595,-9.1202 5.2936,-11.186 -3.2597,-3.2597 -9.1688,-0.5782 -6.8815,3.1228 0.84339,1.3646 -7.3515,11.558 -18.211,22.651 l -19.744,20.17 -22.962,-0.091 c -19.968,-0.079 -23.87,-0.8342 -29.921,-5.7895 z m 36.584,-30.261 c 0.60051,-4.2283 2.7816,-5.9258 8.4193,-6.5529 7.5152,-0.8359 16.486,-6.7997 16.486,-10.9601 0,-3.0101 -9.5124,-2.6824 -11.413,0.3931 -0.86213,1.395 -3.3366,2.5363 -5.4988,2.5363 -5.4138,0 -15.962,10.4401 -16.016,15.8521 -0.0645,6.5371 7.0744,5.4087 8.0227,-1.2681 z m -70.205,-3.1703 c 0,-1.395 -7.1333,-2.8761 -15.85201,-3.2914 -13.136,-0.6258 -15.852,-0.062 -15.852,3.2914 0,3.3534 2.7152,3.9171 15.852,3.2914 8.71841,-0.4153 15.85201,-1.8964 15.85201,-3.2914 z m 55.798,-17.9721 c 0,-3.9467 2.1337,-5.0001 11.413,-5.6344 9.6679,-0.6609 13.256,-2.5856 23.461,-12.586 10.554,-10.343 12.047,-13.115 12.047,-22.37 0,-6.4264 -1.5326,-11.836 -3.913,-13.811 -2.3553,-1.9547 -3.6174,-6.3364 -3.1703,-11.007 0.67589,-7.0617 -0.0553,-7.9079 -8.1343,-9.4137 -4.8823,-0.91 -12.586,-3.599 -17.12,-5.9754 -7.4425,-3.9014 -8.2429,-5.4316 -8.2429,-15.76 0,-7.8299 -0.96941,-11.116 -3.0727,-10.415 -1.69,0.5634 -3.1166,4.3677 -3.1703,8.4543 -0.0854,6.4949 -1.1895,7.5896 -8.773,8.6982 -10.404,1.5208 -13.841,7.6088 -4.2955,7.6088 6.5594,0 25.772,8.772 28.351,12.944 0.77283,1.2505 3.5669,2.2736 6.209,2.2736 3.0207,0 6.4092,3.3829 9.1285,9.1134 3.6804,7.7558 3.7926,9.4848 0.75307,11.606 -2.742,1.914 -2.8352,2.7917 -0.40119,3.7793 5.2984,2.1499 3.6015,6.9497 -5.4882,15.523 -5.7394,5.4136 -11.193,8.1669 -16.175,8.1669 -4.1342,0 -8.9284,1.701 -10.654,3.7799 -5.966,7.1886 -28.989,-3.3068 -26.373,-12.023 1.8233,-6.0759 -4.6568,-5.7377 -10.338,0.5396 -5.321,5.8797 -3.5242,12.776 3.3288,12.776 2.6629,0 6.2077,1.646 7.8773,3.6578 1.6696,2.0118 6.66,4.0091 11.09,4.4385 6.1934,0.6003 8.2457,2.1328 8.8836,6.6334 0.97941,6.9094 6.7792,6.0551 6.7792,-0.9986 z m 53.895,-5.0659 c -2.4169,-2.417 -7.2626,1.4979 -5.4614,4.4124 1.0706,1.7323 2.4892,1.6885 4.3108,-0.133 1.4933,-1.4932 2.011,-3.419 1.1506,-4.2794 z m -390.07001,-12.325 c 3.3546,-4.042 16.886,-3.4155 21.287,0.9856 3.6124,3.6124 15.148,3.3894 18.903,-0.3655 4.671,-4.671 48.501,-4.6421 55.79,0.037 4.858,3.1185 6.8378,3.1932 11.961,0.4515 4.7898,-2.5634 6.9448,-2.6171 9.8043,-0.2439 4.3368,3.5992 7.4038,0.094 5.1217,-5.8526 -1.2456,-3.2461 -5.7262,-4.0333 -22.956,-4.0333 -19.577,0 -21.911,-0.5422 -27.284,-6.3407 -3.232,-3.4874 -7.1721,-6.3407 -8.7558,-6.3407 -1.5837,0 -2.8795,2.8533 -2.8795,6.3407 0,5.918 -0.84541,6.3407 -12.681,6.3407 -6.9748,0 -12.681,1.1413 -12.681,2.5363 0,1.395 -2.2826,2.5363 -5.0726,2.5363 -2.79,0 -5.0726,-1.1413 -5.0726,-2.5363 0,-1.395 -2.9283,-2.5363 -6.5074,-2.5363 -3.5791,0 -8.81,-1.2323 -11.624,-2.7384 -4.0114,-2.1469 -6.167,-1.788 -9.9784,1.6612 -4.9306,4.4621 -6.7116,13.759 -2.6358,13.759 1.2242,0 3.5926,-1.6469 5.2631,-3.6598 z m 446.50001,-29.605 c 0,-7.9929 -2.0441,-11.686 -12.511,-22.603 -7.6774,-8.0074 -14.222,-12.72 -16.939,-12.196 -6.9738,1.3431 -5.512,5.8421 2.186,6.7278 5.3803,0.6191 6.9748,2.1515 6.9748,6.7034 0,3.2455 1.712,6.5578 3.8044,7.3608 2.0924,0.803 3.8044,3.5501 3.8044,6.1048 0,2.5547 1.3426,5.9875 2.9836,7.6285 2.2873,2.2873 1.9195,4.1594 -1.5757,8.0216 -2.6841,2.9659 -3.884,6.7978 -2.9174,9.3168 1.4647,3.817 2.3191,3.6426 7.9164,-1.6158 4.5214,-4.2477 6.2745,-8.5639 6.2745,-15.448 z m -410.88001,1.5611 c 1.7366,-2.0924 4.5057,-3.8044 6.1537,-3.8044 1.648,0 6.8681,-3.9946 11.6,-8.877 10.319,-10.646 13.271,-10.968 19.695,-2.1496 2.8273,3.8812 6.1359,5.964 7.8204,4.9229 4.5591,-2.8177 3.538,-5.7704 -5.0244,-14.53 -7.7425,-7.9205 -7.9321,-8.674 -7.469,-29.687 0.47469,-21.53698 0.48593,-21.57098 10.48,-31.26998 8.7825,-8.5232 10.005,-11.131 10.005,-21.337 0,-8.1679 -0.94326,-11.317 -3.1703,-10.583 -1.7437,0.57426 -3.5119,3.346 -3.9294,6.1593 -0.4175,2.8133 -5.2681,9.5182 -10.779,14.9 l -10.02,9.7844 0,20.89398 c 0,11.492 -1.1413,21.599 -2.5363,22.461 -1.395,0.862 -2.5363,3.643 -2.5363,6.1798 0,2.5368 -1.712,6.0331 -3.8044,7.7697 -2.0924,1.7366 -3.8044,5.0806 -3.8044,7.4313 0,3.7483 -15.287,12.859 -21.577,12.859 -2.8777,0 -11.395,7.8769 -11.395,10.538 0,3.7129 16.984,2.3223 20.29,-1.6612 z m 241.11001,-3.8936 c 3.8975,-2.0859 4.9058,-5.3727 4.9058,-15.992 0,-12.719 -0.61064,-13.951 -12.62,-25.461 -6.94121,-6.6522 -13.60001,-11.489 -14.79701,-10.749 -1.197,0.74 -7.1692,-3.7409 -13.27,-9.9577 -6.1008,-6.21678 -12.999,-11.30298 -15.327,-11.30298 -2.328,0 -5.6548,-1.712 -7.3913,-3.8044 -1.7365,-2.0924 -6.2133,-3.8044 -9.9484,-3.8044 -3.7351,0 -7.9765,-1.1855 -9.4254,-2.6344 -3.4486,-3.4486 -37.313,-4.4655 -38.96,-1.17 -0.73131,1.4626 3.7462,2.86 10.577,3.3011 6.5149,0.42062 13.217,2.4179 14.894,4.4385 1.6894,2.0356 7.3742,3.6737 12.749,3.6737 5.4761,0 14.893,2.7612 21.626,6.34068 6.5589,3.4874 13.467,6.3407 15.352,6.3407 1.885,0 3.4267,2.0363 3.4267,4.5251 0,4.2147 26.65,33.016 29.255,31.617 4.28871,-2.3037 6.25301,0.6841 6.25301,9.511 0,5.5798 -1.1413,10.145 -2.5363,10.145 -1.395,0 -2.5363,1.712 -2.5363,3.8044 0,4.4999 1.2236,4.6854 7.7756,1.1789 z m -104.01001,-8.964 c 1.9065,-2.2972 5.4606,-3.4167 8.4036,-2.6471 2.805,0.7335 8.9432,-0.4901 13.641,-2.7192 6.4002,-3.0371 9.2664,-3.3271 11.436,-1.1573 3.1148,3.1148 12.026,3.9989 12.026,1.193 0,-0.9363 -1.8889,-3.7897 -4.1975,-6.3407 -5.0209,-5.548 -15.477,-5.9014 -22.284,-0.7531 -2.877,2.1761 -10.457,3.7238 -18.238,3.7238 -7.3233,0 -13.939,1.0097 -14.702,2.2438 -2.413,3.9043 -16.579,4.7215 -19.561,1.1284 -1.5393,-1.8547 -4.8018,-3.3722 -7.2501,-3.3722 -2.4483,0 -5.918,-1.7671 -7.7104,-3.9268 -4.5556,-5.4892 -13.848,-3.7052 -13.848,2.6587 0,3.8437 1.9511,5.2617 8.054,5.8532 4.4297,0.4294 9.4201,2.4267 11.09,4.4385 4.4454,5.3565 38.64,5.1005 43.141,-0.3229 z m -158.14,-23.918 c 1.463,0 4.0809,-1.712 5.8174,-3.8044 1.7365,-2.0924 5.3003,-3.8044 7.9194,-3.8044 3.7186,0 4.762,-1.8771 4.762,-8.5664 0,-4.7115 1.712,-9.9872 3.8044,-11.724 2.5753,-2.1373 3.8044,-7.87338 3.8044,-17.75398 0,-9.8806 1.2292,-15.617 3.8044,-17.754 2.0924,-1.7366 3.8044,-4.8507 3.8044,-6.9203 0,-2.0696 2.8533,-6.0073 6.3407,-8.7505 4.5599,-3.5868 6.3407,-7.4289 6.3407,-13.68 0,-10.026 -3.7918,-11.605 -6.0699,-2.5281 -0.96533,3.8461 -3.6921,6.4695 -7.2497,6.9748 -4.0638,0.5772 -5.931,2.7928 -6.4978,7.7103 -0.43746,3.7952 -3.6392,12.249 -7.1149,18.786 -4.9666,9.3409 -5.6108,12.327 -3.0091,13.947 2.6689,1.6617 2.696,3.0525 0.14013,7.1766 -1.7437,2.8135 -3.1703,6.80878 -3.1703,8.87838 0,2.0696 -3.4549,6.3172 -7.6776,9.4392 -4.2227,3.122 -7.0978,7.1873 -6.3891,9.0341 0.7427,1.9354 -1.2726,4.3315 -4.7574,5.6564 -7.4414,2.8292 -10.006,6.672 -7.9786,11.955 1.4043,3.6596 1.9653,3.6485 6.1311,-0.1214 2.5219,-2.2823 5.7824,-4.1496 7.2454,-4.1496 z m 190.97,-8.877 c 0,-3.2669 -10.668,-11.413 -14.946,-11.413 -2.6407,0 -5.4581,-1.712 -6.2611,-3.8044 -1.0268,-2.6759 -5.2008,-3.8044 -14.071,-3.8044 -6.9362,0 -13.317,-1.1413 -14.179,-2.5363 -0.862,-1.395 -3.2151,-2.5363 -5.2288,-2.5363 -2.0137,0 -7.6688,-4.43578 -12.567,-9.85718 -7.6553,-8.4736 -10.893,-10.106 -23.067,-11.627 -12.405,-1.5499 -14.772,-1.114 -19.086,3.5166 -2.7085,2.9072 -6.5921,5.2859 -8.6302,5.2859 -2.0381,0 -3.7056,1.1413 -3.7056,2.5363 0,4.032 10.15,2.9378 11.764,-1.2681 0.88592,-2.3086 4.7212,-3.8044 9.7549,-3.8044 4.5623,0 9.7159,1.712 11.452,3.8044 1.7361,2.0924 6.4416,3.8044 10.456,3.8044 4.0286,0 9.6805,2.3822 12.616,5.31738 l 5.3174,5.3174 -8.4878,7.1541 c -7.4281,6.2609 -7.9218,7.377 -3.9549,8.9396 2.777,1.0938 6.2931,0.1927 9.0767,-2.3265 6.2874,-5.69 42.213,-5.939 44.374,-0.3076 0.80293,2.0924 3.7783,3.8044 6.612,3.8044 2.8337,0 5.1521,1.1413 5.1521,2.5363 0,1.395 1.712,2.5363 3.8044,2.5363 2.0924,0 3.8044,-0.5706 3.8044,-1.2681 z m -28.816,-68.47898 c 0.80295,-2.0924 3.4807,-3.8044 5.9505,-3.8044 2.4698,0 5.9115,-1.712 7.648,-3.8044 2.6717,-3.2192 2.122,-3.8044 -3.5734,-3.8044 -3.702,0 -7.3878,1.712 -8.1907,3.8044 -0.88592,2.3086 -4.7213,3.8044 -9.7549,3.8044 -4.5623,0 -9.7159,-1.712 -11.452,-3.8044 -3.3556,-4.0432 -12.681,-5.2649 -12.681,-1.6612 0,2.6611 7.5778,9.3986 12.681,11.275 7.658,2.8158 17.931,1.7525 19.373,-2.0051 z m -151.26,-19.98 c 0,-4.7115 1.6435,-9.9303 3.6522,-11.597 2.0087,-1.6667 4.006,-5.5161 4.4385,-8.5534 0.60756,-4.2671 2.8019,-5.7137 9.6531,-6.3637 4.8768,-0.46269 10.453,-2.1575 12.391,-3.7662 1.938,-1.6087 4.7962,-2.9421 6.3508,-2.9631 1.5546,-0.021 3.3973,-1.1796 4.0947,-2.5745 2.2247,-4.4494 -21.575,-4.5645 -25.261,-0.12215 -4.1055,4.9468 -11.794,5.0887 -13.65,0.25198 -0.86264,-2.248 0.58025,-4.3063 3.7165,-5.3017 3.2947,-1.0457 4.5921,-3.0198 3.6309,-5.5246 -0.84527,-2.2027 0.45181,-5.3215 2.9829,-7.1723 2.4632,-1.8011 3.6602,-4.0931 2.6601,-5.0933 -2.3823,-2.3823 -14.559,9.2162 -14.616,13.922 -0.0241,2.0025 -2.4739,6.2276 -5.444,9.3891 -4.3721,4.6539 -5.4676,9.1823 -5.7542,23.788 -0.38823,19.78 -0.23783,20.248 6.5046,20.248 3.5911,0 4.6498,-1.9504 4.6498,-8.5664 z m 269.92001,-23.561 c 2.1596,-5.6278 -2.6095,-10.474 -6.4892,-6.5943 -3.1051,3.1051 -1.3066,10.823 2.5221,10.823 1.2895,0 3.0747,-1.9028 3.9671,-4.2285 z m -162.97001,-7.5778 c 5.5981,-5.0662 6.1203,-13.556 0.83377,-13.556 -2.0924,0 -3.8044,2.2153 -3.8044,4.9229 0,2.7076 -1.1413,5.6282 -2.5363,6.4904 -2.8507,1.7618 -3.4528,6.3407 -0.83378,6.3407 0.93637,0 3.7897,-1.8889 6.3407,-4.1975 z m -50.702,-29.408 c 0.74557,-5.2496 2.1309,-5.7066 17.296,-5.7066 15.284,0 16.546,0.42632 17.315,5.8481 0.71838,5.0677 2.0722,5.7446 10.145,5.0725 8.4658,-0.70475 9.3886,-1.5279 10.111,-9.0184 l 0.79477,-8.2429 -29.762,0 c -31.57,0 -39.039,2.5012 -39.039,13.074 0,7.2984 12.091,6.3532 13.139,-1.0272 z m 421.92,193.12998 c -4.9309,-4.3294 -8.9652,-9.7176 -8.9652,-11.974 0,-2.2564 -6.4147,-10.585 -14.255,-18.507 -13.70399,-13.849 -15.94699,-20.743 -6.4447,-19.811 9.4637,0.9285 13.091,-0.3864 13.091,-4.7457 0,-2.5163 4.007,-8.4588 8.9044,-13.206 11.182,-10.83798 18.995,-26.73198 18.995,-38.64198 0,-7.4698 1.0202,-9.3181 5.508,-9.9784 3.0294,-0.44575 6.0032,-2.3132 6.6084,-4.1499 0.81049,-2.4595 -1.4762,-3.1278 -8.6783,-2.5363 -9.1473,0.75127 -9.8314,1.3763 -10.594,9.6801 -0.44818,4.8823 -1.8748,9.9612 -3.1703,11.286 -1.2955,1.3248 -2.3554,5.0312 -2.3554,8.2356 0,6.0146 -16.228,26.13098 -21.081,26.13098 -1.505,0 -5.7807,2.9166 -9.5014,6.4813 -7.98229,7.6475 -20.93199,10.094 -25.33599,4.7874 -1.9414,-2.3393 -7.8465,-3.6598 -16.366,-3.6598 -8.5195,0 -14.424,-1.3202 -16.368,-3.6628 -1.6719,-2.0146 -7.2329,-4.0119 -12.358,-4.4385 -7.4434,-0.6196 -9.481,-1.9237 -10.128,-6.48228 -0.50542,-3.5587 -2.5684,-5.7066 -5.4812,-5.7066 -6.6896,0 -17.677,-13.883 -16.016,-20.237 0.74115,-2.8341 0.1783,-6.5735 -1.2507,-8.3097 -1.429,-1.7362 -3.4053,-8.5781 -4.3917,-15.204 -0.9864,-6.6259 -2.8052,-12.047 -4.0418,-12.047 -1.2366,0 -2.2483,-3.424 -2.2483,-7.6088 0,-5.5249 1.2156,-7.6309 4.4385,-7.6895 2.4412,-0.0444 6.6539,-1.7564 9.3617,-3.8044 6.3436,-4.798 15.153,-4.761 19.171,0.0806 1.7366,2.0924 5.1605,3.8044 7.6088,3.8044 2.4483,0 5.8723,1.712 7.6088,3.8044 1.7365,2.0924 4.5307,3.8044 6.2091,3.8044 1.6784,0 5.7323,2.8533 9.0085,6.3407 3.2762,3.4874 7.7074,6.3407 9.8471,6.3407 2.4083,0 -0.41727,-4.391 -7.4168,-11.526 -13.411,-13.67 -35.085,-24.794 -43.966,-22.565 -3.7619,0.94421 -6.8909,0.25109 -8.1637,-1.8083 -2.9253,-4.7333 -1.1997,-20.452 2.7414,-24.971 1.8249,-2.0924 3.7322,-6.0871 4.2385,-8.877 0.77001,-4.243 3.2353,-5.195 15.074,-5.8211 10.367,-0.54827 15.024,0.29993 17.406,3.1703 1.7888,2.1554 5.3386,3.9189 7.8884,3.9189 2.5498,0 5.6837,1.8722 6.9643,4.1605 1.2806,2.2883 3.6481,3.3448 5.2625,2.3471 1.8912,-1.1688 -1.7397,-6.0283 -10.215,-13.672 -10.587,-9.5478 -15.418,-12.105 -24.793,-13.126 -11.319,-1.2328 -11.665,-1.5286 -12.421,-10.613 -0.59643,-7.171 -3.1568,-11.495 -11.005,-18.585 -5.6251,-5.0819 -9.5258,-9.9415 -8.6684,-10.799 2.3863,-2.3863 -24.443,-28.482 -29.283,-28.482 -2.3396,0 -4.9107,-1.712 -5.7137,-3.8044 -1.2004,-3.1283 -7.703,-3.8044 -36.591,-3.8044 l -35.13101,0 -10.632,-9.1007 c -15.018,-12.855 -16.664,-16.817 -10.331,-24.868 2.8605,-3.6365 7.2609,-6.6117 9.7787,-6.6117 2.5178,0 5.9987,-1.712 7.7353,-3.8044 4.3585,-5.2516 31.14901,-5.2516 35.50801,0 1.7722,2.1354 7.3009,3.8044 12.602,3.8044 5.1947,0 13.03,1.7883 17.411,3.9741 4.381,2.1858 8.9474,3.3676 10.147,2.6265 1.1996,-0.7411 5.422,2.0358 9.3838,6.171 5.2158,5.4441 9.58,7.5186 15.817,7.5186 5.7638,0 8.2642,-1.049 7.557,-3.1703 -0.58123,-1.7437 -2.3883,-3.313 -4.0158,-3.4874 -1.6275,-0.1744 -4.1954,-0.4597 -5.7066,-0.63407 -1.5112,-0.17437 -2.2597,-1.7437 -1.6634,-3.4874 0.70042,-2.048 6.3001,-3.1703 15.818,-3.1703 9.5149,0 15.12,-1.123 15.824,-3.1703 0.82905,-2.4108 -5.7964,-3.1906 -27.654,-3.2547 -24.645,-0.0723 -29.586,-0.78564 -34.645,-5.0017 -3.2451,-2.7045 -5.175,-6.0905 -4.2888,-7.5244 1.0086,-1.6319 19.005,-2.6071 48.111,-2.6071 38.994,0 46.736,0.61413 47.96,3.8044 0.80293,2.0924 3.6386,3.8044 6.3015,3.8044 2.6629,0 6.2624,1.712 7.999,3.8044 1.7366,2.0924 6.4278,3.8044 10.425,3.8044 5.1965,0 9.9867,2.8899 16.809,10.141 5.248,5.5775 11.575,10.143 14.06,10.145 2.48499,0.002 5.17499,1.7161 5.97799,3.8086 0.803,2.0925 2.4791,3.8044 3.7248,3.8044 4.9535,0 1.7599,-5.897 -7.8802,-14.551 -5.57979,-5.0091 -10.14499,-10.062 -10.14499,-11.228 0,-4.4364 17.98299,-1.8559 29.41099,4.2205 6.5589,3.4874 14.395,6.3407 17.414,6.3407 3.019,0 8.7299,3.3834 12.692,7.5186 3.9621,4.1352 8.0359,7.0041 9.0534,6.3752 1.0175,-0.6289 4.6565,1.0642 8.0867,3.7623 3.4302,2.6981 8.4149,4.3427 11.077,3.6545 7.0474,-1.8217 32.682,24.513 30.814,31.656 -0.74919,2.8648 0.2288,6.495 2.1878,8.1208 1.9484,1.617 3.5426,6.6552 3.5426,11.196 0,4.5408 1.712,9.6767 3.8044,11.413 2.0924,1.7363 3.8044,4.5899 3.8044,6.3407 0,1.7508 1.7627,4.6462 3.9172,6.4343 2.5994,2.1573 3.4147,5.5387 2.4235,10.052 -0.9912,4.5133 -0.17587,7.8942 2.4235,10.052 2.1544,1.788 3.9172,7.1895 3.9172,12.003 0,6.76 0.94849,8.5657 4.1666,7.9323 2.2916,-0.451 5.4303,-2.8941 6.9748,-5.4291 2.3178,-3.8044 1.5904,-5.5922 -4.1666,-10.24 -7.5813,-6.121 -9.2439,-15.441 -3.1704,-17.771 5.8454,-2.2431 4.515,-9.0833 -2.2684,-11.662 -5.3742,-2.0433 -14.217,-14.969 -14.217,-20.782 0,-3.7154 16.982,-2.3278 20.29,1.6578 1.7366,2.0924 4.7296,3.8044 6.6512,3.8044 4.44,0 13.639,9.0884 13.639,13.475 0,1.8314 3.424,6.6103 7.6088,10.62 4.1848,4.0097 7.6088,9.2191 7.6088,11.577 0,2.3579 1.6441,5.652 3.6536,7.3197 2.0095,1.6677 3.0324,4.6512 2.2731,6.6298 -0.7593,1.9786 0.44988,4.3 2.687,5.1585 2.23712,0.8585 4.06761,3.5816 4.06761,6.0515 0,2.4699 1.712,5.9115 3.8044,7.648 2.291,1.9013 3.8044,7.4506 3.8044,13.95 0,6.4994 -1.5134,12.048 -3.8044,13.95 -2.0924,1.7366 -3.8044,5.1605 -3.8044,7.6088 0,2.4483 -1.71201,5.8723 -3.80441,7.6088 -2.329,1.9329 -3.8044,7.494 -3.8044,14.34 0,16.989 -5.2733,16.98 -22.472,-0.0396 -7.948,-7.865 -15.678,-14.3 -17.177,-14.3 -6.1934,0 -16.149,-12.542 -16.149,-20.345 0,-6.7484 -0.83573,-7.7876 -5.7066,-7.0959 -4.8036,0.68223 -5.8349,2.6157 -6.5173,12.219 -0.86198,12.131 -6.1275,20.295 -13.09,20.295 -5.2508,0 -14.447,9.6728 -15.673,16.486 -0.53137,2.9518 -3.2882,5.4114 -6.5939,5.883 -8.0483,1.1482 -7.8102,10.603 0.26689,10.603 6.5607,0 14.343,-7.1197 14.343,-13.122 0,-4.7612 7.9683,-12.241 13.041,-12.241 2.0703,0 7.0446,-3.424 11.054,-7.6088 9.0654,-9.4622 11.215,-9.472 20.202,-0.0917 6.0256,6.2894 6.6737,8.1535 3.9684,11.413 -1.7784,2.1429 -5.1268,3.8961 -7.4408,3.8961 -4.0314,0 -33.216,27.363 -33.216,31.143 0,5.7662 10.853,0.003 22.826,-12.121 16.908,-17.12 23.917,-18.101 36.86,-5.1571 7.3659,7.3659 8.7924,10.602 8.7924,19.943 0,10.096 -1.1897,12.26405 -12.573,22.91105 -9.1438,8.5529 -14.637,11.76 -20.14,11.76 -4.1623,0 -8.2732,1.1413 -9.1353,2.5363 -0.8621,1.395 -4.7844,2.5363 -8.7161,2.5363 -3.9317,0 -8.5311,1.6658 -10.221,3.7018 -2.0874,2.5151 -9.301,3.9379 -22.503,4.4385 -26.499,1.0047 -24.819,5.6295 2.3738,6.5364 17.164,0.5724 22.493,-0.1023 25.039,-3.1704 1.779,-2.1436 5.2554,-3.8975 7.7253,-3.8975 2.4699,0 5.1476,-1.712 5.9505,-3.8044 1.03,-2.6842 5.2174,-3.8044 14.221,-3.8044 14.66,0 16.355,3.3483 6.4203,12.681 -3.4874,3.2762 -6.3407,8.0763 -6.3407,10.667 0,2.5907 -1.9973,5.3282 -4.4385,6.0837 -2.4412,0.7555 -6.4203,2.4317 -8.8425,3.7248 -2.4222,1.2931 -7.7214,2.3511 -11.776,2.3511 -4.2131,0 -7.9974,1.6302 -8.8318,3.8044 -0.90261,2.3522 -4.7602,3.8044 -10.106,3.8044 -4.7553,0 -10.067,1.712 -11.803,3.8044 -2.3154,2.7899 -8.4617,3.8044 -23.049,3.8044 -18.632,0 -20.459,-0.4982 -28.857,-7.8716 z m 31.615,-45.39 c 0,-1.395 4.9178,-2.5363 10.928,-2.5363 6.0102,0 13.144,-1.6757 15.852,-3.7238 2.708,-2.0481 7.0157,-3.76 9.5731,-3.8044 2.5574,-0.044 4.1824,-1.5042 3.6088,-3.251 -1.5563,-4.7397 -13.292,-5.265 -17.029,-0.7623 -1.7951,2.163 -6.9789,3.9326 -11.52,3.9326 -4.5411,0 -9.6767,1.712 -11.413,3.8044 -2.3756,2.8624 -8.7699,3.8044 -25.823,3.8044 -14.465,0 -22.098,0.9177 -21.098,2.5363 0.86213,1.395 11.772,2.5363 24.244,2.5363 13.427,0 22.677,-1.0346 22.677,-2.5363 z m -75.90699,-62.66398 -0.43852,-27.552 9.85799,-4.3494 c 5.422,-2.3921 12.452,-4.3494 15.623,-4.3494 6.657,0 17.785,-9.5664 17.849,-15.344 0.0241,-2.1622 1.3944,-5.2818 3.0451,-6.9325 1.6507,-1.6507 2.2093,-3.7932 1.2414,-4.7612 -2.6732,-2.6732 -11.851,8.363 -11.851,14.251 0,4.3271 -1.6234,5.1786 -9.8737,5.1786 -6.633,0 -10.375,1.3071 -11.402,3.9823 -0.91661,2.3887 -3.8164,3.6574 -7.24609,3.1704 -5.1724,-0.73451 -5.743,-2.2639 -5.9802,-16.03 -0.19314,-11.21 -1.195,-15.218 -3.8044,-15.218 -2.818,0 -3.6272,6.3913 -3.9578,31.262 -0.34247,25.761 -1.1928,32.121 -4.8316,36.142 -2.4288,2.6838 -5.8113,4.8796 -7.5167,4.8796 -5.3599,0 -10.011,7.4072 -6.7178,10.7 2.144,2.144 4.142,1.7306 7.8488,-1.6241 6.4882,-5.8717 10.365,-3.2024 10.365,7.1369 0,4.5675 0.77991,9.0845 1.7331,10.038 4.5054,4.5054 6.458,-5.354 6.0565,-30.58 z m 70.07499,-39.772 c 1.1155,-1.9369 4.2297,-3.9342 6.9204,-4.4385 5.8806,-1.102 6.4962,-5.6804 0.90839,-6.7565 -4.5105,-0.86865 -18.017,10.532 -15.482,13.067 2.625,2.625 5.4627,1.9308 7.6529,-1.8721 z m 92.633,-10.005 c -2.7466,-3.0227 -4.5423,-6.7153 -3.9905,-8.2059 1.1857,-3.203 -15.318,-18.848 -19.882,-18.848 -6.056,0 -27.42,-23.582 -27.42,-30.266 0,-4.3291 -4.5557,-10.966 -14.255,-20.768 -13.611,-13.754 -16.025,-20.991 -6.4781,-19.415 2.3962,0.39568 4.2472,-0.95674 4.2472,-3.1031 0,-2.6886 -2.3003,-3.6315 -7.8427,-3.215 -5.5745,0.41897 -9.5534,-1.2315 -13.758,-5.7066 -3.2532,-3.4628 -7.1857,-6.2961 -8.7389,-6.2961 -1.5532,0 -6.7756,-3.3776 -11.605,-7.5058 -4.8294,-4.1282 -11.78,-7.5521 -15.445,-7.6088 -3.665,-0.0567 -8.085,-1.8151 -9.8216,-3.9075 -2.3416,-2.8214 -8.5859,-3.8044 -24.16699,-3.8044 l -21.01,0 -13.157,-12.681 c -7.2364,-6.9748 -15.134,-12.681 -17.55,-12.681 -2.416,0 -7.0731,2.8533 -10.349,6.3407 -3.5048,3.7306 -8.779,6.3407 -12.813,6.3407 -8.3028,0 -13.191,5.0035 -9.9741,10.209 1.8203,2.9452 2.9267,3.057 5.4347,0.549 1.732,-1.732 5.9696,-3.1491 9.4169,-3.1491 3.4473,0 8.3819,-1.9133 10.966,-4.2517 3.6017,-3.2595 5.3944,-3.5554 7.6817,-1.2681 1.641,1.641 4.8141,2.9836 7.0514,2.9836 7.0439,0 19.852,15.664 20.738,25.363 0.74846,8.1924 1.5192,8.9362 9.9956,9.6447 8.859,0.74049 9.242,1.1861 10.802,12.571 1.5659,11.424 1.2507,12.176 -9.8187,23.414 -6.29,6.3861 -11.406,13.854 -11.368,16.596 0.0619,4.5419 22.543,31.616 26.253,31.616 3.27639,0 1.4151,-7.1288 -2.226,-8.526 -2.0924,-0.80294 -3.8044,-3.4306 -3.8044,-5.8392 0,-2.4086 -3.0595,-7.5727 -6.7988,-11.476 l -6.7988,-7.0964 6.1648,-6.5907 c 9.6424,-10.309 14.741,-12.255 19.89099,-7.5952 2.435,2.2036 5.9757,4.0066 7.8684,4.0066 4.5099,0 15.181,10.096 15.181,14.363 0,5.001 8.1559,13.536 12.934,13.536 2.3091,0 5.6191,1.712 7.3557,3.8044 1.7366,2.0924 7.0123,3.8044 11.724,3.8044 8.1138,0 8.5664,0.47319 8.5664,8.9566 0,5.6217 1.4165,9.5001 3.8044,10.416 2.0924,0.80296 3.8044,4.1911 3.8044,7.5292 0,5.5924 0.99663,6.0693 12.681,6.0693 6.9748,0 12.681,-0.96444 12.681,-2.1432 0,-3.3597 -8.353,-9.9177 -13.95,-10.952 -2.7899,-0.51557 -5.1027,-2.6307 -5.1396,-4.7003 -0.0369,-2.0696 -1.1779,-5.4749 -2.5356,-7.5673 -1.3577,-2.0924 -3.6403,-6.0871 -5.0724,-8.877 -1.4321,-2.7899 -5.9977,-5.7105 -10.146,-6.4901 -13.807,-2.5952 -24.028,-7.8296 -24.028,-12.306 0,-5.3015 -11.415,-16.585 -23.091,-22.824 -4.7366,-2.5312 -8.9659,-6.9592 -9.3983,-9.8401 -0.4324,-2.8809 -2.4298,-6.6019 -4.4385,-8.2689 -2.0087,-1.667 -3.65219,-4.815 -3.65219,-6.9955 0,-5.5655 -10.11,-15.705 -15.66,-15.705 -3.2483,0 -4.6304,-1.8926 -4.6304,-6.3407 0,-6.0396 0.70334,-6.3407 14.813,-6.3407 11.45899,0 18.33999,1.7629 30.39599,7.787 8.5708,4.2828 16.239,8.8482 17.041,10.145 0.802,1.2968 3.333,2.3581 5.6254,2.3581 5.3993,0 20.895,15.01 20.895,20.24 0,2.2152 6.2773,10.227 13.95,17.804 l 13.95,13.776 0,18.686 c 0,13.597 0.84443,18.405 3.1004,17.653 1.7052,-0.56841 3.754,-3.8022 4.5528,-7.1861 1.8767,-7.9498 5.2755,-7.7624 14.91,0.82211 4.3054,3.8361 9.1036,6.9748 10.663,6.9748 4.5268,0 14.871,10.991 14.919,15.852 0.0241,2.4412 1.1852,4.4385 2.5801,4.4385 1.3949,0 2.5363,2.0544 2.5363,4.5653 0,2.5109 1.3771,5.9424 3.0602,7.6255 2.3894,2.3894 3.5548,2.1764 5.3166,-0.97173 1.5702,-2.8059 0.73787,-5.7031 -2.7374,-9.5277 z m 24.796,-8.4222 c 0,-11.525 -1.0242,-16.648 -3.5198,-17.605 -1.9359,-0.74288 -4.1454,-4.4164 -4.9101,-8.1633 -1.5213,-7.4544 -23.352,-30.406 -26.206,-27.552 -0.97377,0.97375 1.0541,4.8972 4.5064,8.7188 3.4523,3.8216 7.8892,10.175 9.8598,14.119 1.9706,3.944 5.6254,8.2642 8.1218,9.6002 3.7866,2.0265 4.5389,5.8288 4.5389,22.941 0,17.945 0.47606,20.116 3.8044,17.354 2.6575,-2.2056 3.8044,-8.0576 3.8044,-19.412 z" />
    <flowRoot
       xml:space="preserve"
       id="flowRoot3375"
       style="font-style:normal;font-variant:normal;font-weight:bold;font-stretch:normal;font-size:40px;line-height:125%;font-family:sans-serif;-inkscape-font-specification:'sans-serif Bold';letter-spacing:0px;word-spacing:0px;fill:#000000;fill-opacity:1;stroke:none;stroke-width:1px;stroke-linecap:butt;stroke-linejoin:miter;stroke-opacity:1"
       transform="translate(-28.284271,-161.62441)"><flowRegion
         id="flowRegion3377"><rect
           id="rect3379"
           width="323.24881"
           height="323.24884"
           x="34.345188"
           y="506.87982"
           style="font-style:normal;font-variant:normal;font-weight:bold;font-stretch:normal;font-family:sans-serif;-inkscape-font-specification:'sans-serif Bold'" /></flowRegion><flowPara
         id="flowPara3381"
         style="font-style:normal;font-variant:normal;font-weight:bold;font-stretch:normal;font-size:250px;font-family:sans-serif;-inkscape-font-specification:'sans-serif Bold'">+</flowPara></flowRoot>    <flowRoot
       xml:space="preserve"
       id="flowRoot3383"
       style="fill:black;stroke:none;stroke-opacity:1;stroke-width:1px;stroke-linejoin:miter;stroke-linecap:butt;fill-opacity:1;font-family:sans-serif;font-style:normal;font-weight:normal;font-size:40px;line-height:125%;letter-spacing:0px;word-spacing:0px"><flowRegion
         id="flowRegion3385"><rect
           id="rect3387"
           width="4.0406103"
           height="193.9493"
           x="137.38075"
           y="321.01175" /></flowRegion><flowPara
         id="flowPara3389"></flowPara></flowRoot>    <path
       inkscape:connector-curvature="0"
       style="fill:#008000;stroke:#000000;stroke-width:4.09509993"
       d="m -923.31556,429.59164 c 0,0 -32.327,147.22 -2.7666,212.6 12.845,28.407 39.54,57.033 71.931,64.035 38.626,8.3497 83.651,-9.0396 113.43,-33.298 21.373,-17.411 22.035,-48.733 35.966,-71.719 22.779,-37.585 37.529,-85.434 77.465,-107.58 24.64,-13.663 58.601,-16.325 85.764,-7.6842 45.653,14.522 73.803,58.208 105.13,92.21 27.556,29.909 35.873,76.574 71.931,97.333 16.613,9.5642 39.148,12.179 58.099,7.6842 26.8,-6.3569 50.376,-25.224 66.398,-46.105 49.321,-64.277 77.465,-225.4 77.465,-225.4 0,0 4.3306,193.15 -47.032,271.51 -20.86,31.824 -57.574,58.548 -96.831,66.596 -31.255,6.4081 -65.529,-4.4958 -94.064,-17.93 -24.441,-11.506 -42.747,-32.174 -60.865,-51.228 -22.315,-23.468 -30.358,-59.011 -58.098,-76.842 -21.129,-13.582 -50.619,-26.305 -74.698,-17.93 -22.987,7.9949 -29.414,36.56 -41.499,56.351 -18.48,30.264 -20.402,70.261 -47.032,94.772 -30.148,27.749 -74.255,42.249 -116.2,48.667 -37.481,5.7351 -79.536,5.6385 -113.43,-10.246 -32.047,-15.018 -56.282,-44.349 -71.931,-74.281 -35.47294,-67.846 -41.49894,-222.84 -41.49894,-222.84 z"
       id="path3493" />
    <path
       inkscape:connector-curvature="0"
       style="fill:#e6e6e6;stroke:#000000;stroke-width:4.09509993"
       d="m -966.19556,460.33164 30.433,-2.5614 -19.366,78.123 z"
       id="path3495" />
    <path
       inkscape:connector-curvature="0"
       style="fill:#ececec;stroke:#000000;stroke-width:4.09509993"
       d="m -1111.4455,453.93164 11.066,73 11.066,-64.035 z"
       id="path3497" />
    <path
       inkscape:connector-curvature="0"
       style="fill:#ff0000;stroke:#000000;stroke-width:4.09509993"
       d="m -1033.9855,462.89164 c -9.9782,-1.5218 -16.373,12.051 -20.749,20.491 -4.2328,8.1641 -3.0964,17.891 -4.1499,26.895 -1.3446,11.491 -0.7084,23.179 -2.7666,34.579 -1.4936,8.2725 -4.0761,16.369 -6.9165,24.333 -3.8927,10.915 -13.833,32.017 -13.833,32.017 l 20.749,-32.017 4.1499,-6.4035 2.7666,46.105 c 0,0 3.9439,-34.105 4.1499,-51.228 0.098,-8.1218 -1.3614,-16.211 -1.3833,-24.333 -0.024,-8.975 -0.6759,-18.124 1.3833,-26.895 1.5823,-6.7394 3.7251,-13.767 8.2998,-19.211 3.8514,-4.5826 13.618,-4.6308 15.216,-10.246 1.4199,-4.9879 -1.4191,-13.249 -6.9165,-14.088 z"
       id="path3499" />
    <path
       inkscape:connector-curvature="0"
       style="fill:#008000;stroke:#000000;stroke-width:4.09496212;stroke-linejoin:round"
       d="m -881.84085,334.81036 a 134.17489,179.28777 0 0 1 -268.34975,0 134.17489,179.28777 0 1 1 268.34975,0 z"
       id="path3501" />
    <path
       inkscape:connector-curvature="0"
       style="fill:#009e00"
       d="m -1057.4955,484.67164 c 17.501,8.7837 38.384,15.367 58.09894,12.807 16.765,-2.1766 31.627,-12.624 44.266,-23.053 17.007,-14.033 30.129,-32.271 40.116,-51.228 13.883,-26.352 23.816,-55.296 26.283,-84.526 2.027,-24.019 -0.24735,-49.266 -9.6831,-71.719 -7.7938,-18.546 -37.349,-48.667 -37.349,-48.667 0,0 16.566,40.357 20.749,61.474 4.1669,21.033 8.145,42.974 4.1499,64.035 -3.8226,20.152 -16.499,38.005 -26.283,56.351 -7.9506,14.909 -13.37,31.988 -26.283,43.544 -12.307,11.014 -28.964,18.236 -45.64894,21.772 -17.535,3.7162 -36.696,3.4353 -53.949,-1.2807 -18.658,-5.1 -49.799,-28.175 -49.799,-28.175 0,0 32.967,37.442 55.332,48.667 z"
       id="path3503" />
    <path
       inkscape:connector-curvature="0"
       style="fill:#ffffff;stroke:#000000;stroke-width:4.09509993;stroke-linejoin:round"
       d="m -1062.0055,112.24364 c -0.8519,0.0114 -1.6973,0.0594 -2.5524,0.13901 -27.365,2.5464 -45.762,39.397 -41.102,82.327 4.66,42.93 30.627,75.664 57.993,73.118 12.51,-1.1641 23.137,-9.5021 30.554,-22.311 4.889,19.082 15.5629,32.761 30.47894,35.933 27.55,5.8591 59.016,-26.265 70.304,-71.762 11.288,-45.497 -1.8784,-87.136 -29.428,-92.995 -23.345,-4.965 -49.535,17.342 -63.84794,51.954 -8.3954,-33.067 -29.695,-56.707 -52.4,-56.402 z"
       id="path3505" />
    <path
       inkscape:connector-curvature="0"
       style="fill:#009e00;stroke:#000000;stroke-width:4.09496212;stroke-linejoin:round"
       d="m -1039.5332,419.33348 a 23.51515,20.489724 0 0 1 -47.0303,0 23.51515,20.489724 0 1 1 47.0303,0 z"
       id="path3507" />
    <path
       inkscape:connector-curvature="0"
       style="fill:#009e00;stroke:#000000;stroke-width:4.09496212;stroke-linejoin:round"
       d="m -957.91327,424.45648 a 23.515136,20.489712 0 0 1 -47.03023,0 23.515136,20.489712 0 1 1 47.03023,0 z"
       id="path3509" />
    <path
       inkscape:connector-curvature="0"
       style="fill:none;stroke:#000000;stroke-width:16.37961769;stroke-linejoin:round"
       d="m -1027.0778,224.03292 a 20.0572,32.656158 0 0 1 -40.1144,0 20.0572,32.656158 0 1 1 40.1144,0 z"
       id="path3511" />
    <path
       inkscape:connector-curvature="0"
       style="fill:none;stroke:#000000;stroke-width:16.37961769;stroke-linejoin:round"
       d="m -964.82105,226.60148 a 18.674105,31.377206 0 0 1 -37.34825,0 18.674105,31.377206 0 1 1 37.34825,0 z"
       id="path3513" />
    <path
       inkscape:connector-curvature="0"
       style="fill:none;stroke:#008000;stroke-width:8.19029999"
       d="m -1122.5125,170.89564 102.36,-58.912"
       id="path3515" />
    <path
       inkscape:connector-curvature="0"
       style="fill:none;stroke:#008000;stroke-width:8.19029999"
       d="m -1003.5456,123.50964 107.90004,49.947"
       id="path3517" />
    <path
       inkscape:connector-curvature="0"
       style="fill:#009e00"
       d="m -1021.5355,256.70164 c 0,0 -12.337,32.855 -15.216,49.947 -2.0615,12.24 -2.4721,24.794 -1.3833,37.14 1.9132,21.696 10.067,42.548 13.833,64.035 1.191,6.7947 2.7666,20.491 2.7666,20.491 0,0 -1.0814,-41.024 -2.7666,-61.474 -1.2706,-15.418 -5.6064,-30.642 -5.5332,-46.105 0.1018,-21.498 8.2998,-64.035 8.2998,-64.035 z"
       id="path3519" />
    <path
       inkscape:connector-curvature="0"
       style="fill:none;stroke:#000000;stroke-width:4.09509993"
       d="m -1122.5125,261.82164 c 0,0 38.095,35.929 62.248,34.579 15.743,-0.88017 37.349,-26.895 37.349,-26.895 0,0 20.6279,33.67 38.73194,35.86 26.428,3.1965 69.165,-37.14 69.165,-37.14"
       id="path3521" />
    <path
       inkscape:connector-curvature="0"
       style="fill:#009e00"
       d="m -991.09556,640.91164 c 0,0 7.3394,39.693 16.6,57.632 6.4029,12.403 16.345,23.084 26.283,33.298 8.7393,8.9829 17.811,18.176 29.049,24.333 10.918,5.9817 23.563,9.0554 35.966,11.526 14.937,2.9758 30.372,4.0804 45.649,3.8421 18.585,-0.28992 37.262,-2.3704 55.332,-6.4035 20.987,-4.6842 43.101,-9.1344 60.865,-20.491 18.026,-11.524 31.04,-29.043 42.882,-46.105 17.288,-24.908 40.116,-80.684 40.116,-80.684 0,0 -43.913,65.458 -73.315,92.21 -12.501,11.375 -26.824,21.672 -42.882,28.175 -24.608,9.9655 -51.999,14.687 -78.848,15.368 -24.25,0.61585 -50.02,-0.60548 -71.931,-10.246 -17.397,-7.6542 -30.668,-22.071 -42.882,-35.86 -17.702,-19.983 -42.882,-66.596 -42.882,-66.596 z"
       id="path3523" />
    <path
       inkscape:connector-curvature="0"
       style="fill:#009e00"
       d="m -678.47556,593.52164 c 0,0 12.546,-35.12 22.133,-51.228 7.9676,-13.387 15.565,-28.321 29.049,-37.14 13.347,-8.7297 30.703,-12.224 47.032,-12.807 15.543,-0.55453 31.977,2.0959 45.649,8.9649 13.182,6.6232 21.378,19.485 31.816,29.456 14.53,13.879 29.757,27.232 42.882,42.263 13.75,15.747 25.443,32.961 37.349,49.947 8.2217,11.731 23.516,35.86 23.516,35.86 0,0 -37.192,-36.456 -55.332,-55.07 -13.134,-13.477 -25.338,-27.727 -38.732,-40.982 -11.137,-11.022 -20.248,-24.829 -34.582,-32.018 -15.744,-7.8961 -34.722,-11.627 -52.565,-10.246 -13.823,1.0701 -27.357,6.7386 -38.732,14.088 -13.66,8.825 -21.772,23.359 -33.199,34.579 -8.4998,8.3458 -26.283,24.333 -26.283,24.333 z"
       id="path3525" />
    <path
       inkscape:connector-curvature="0"
       style="fill:#009e00"
       d="m -423.94556,690.86164 c 0,0 24.475,29.497 41.499,38.421 13.235,6.9378 29.058,10.007 44.266,10.246 13.202,0.20711 26.222,-3.7754 38.732,-7.6842 16.417,-5.1293 34.02,-9.8984 47.032,-20.491 19.308,-15.718 29.926,-38.938 41.499,-60.193 10.446,-19.186 24.899,-60.193 24.899,-60.193 0,0 -39.619,66.998 -70.548,90.93 -16.459,12.735 -37.324,20.67 -58.098,25.614 -22.815,5.4293 -47.613,8.8183 -70.548,3.8421 -14.478,-3.1412 -38.732,-20.491 -38.732,-20.491 z"
       id="path3527" />
    <path
       inkscape:connector-curvature="0"
       style="opacity:0.36280003;fill:none;stroke:#efff00;stroke-width:16.38100052;stroke-linecap:round;stroke-linejoin:round"
       d="m -1009.0855,532.05164 56.71494,34.579 -40.116,67.877 67.782,32.018 -13.833,73 71.931,-23.053 23.516,58.912 42.882,-58.912 53.949,39.702 12.45,-70.438 67.782,10.246 -23.516,-87.088 55.332,-3.8421 -15.216,-78.123 70.548,42.263 29.049,-70.438 29.049,88.368 65.015,-8.9649 -5.5332,76.842 59.482,2.5614 6.9165,64.035 45.649,-26.895 41.499,34.579 31.816,-43.544 41.499,2.5614 4.1499,-38.421 24.899,-16.649 -5.5332,-29.456 26.283,-14.088 -8.2998,-16.649 15.216,-34.579 1.3833,-23.053"
       id="path3529" />
  </g>
</svg>
